<svg xmlns="http://www.w3.org/2000/svg" xmlns:xlink="http://www.w3.org/1999/xlink" viewBox="0 0 33.46 33.46"><defs><style>.cls-1{fill:none;}.cls-2{clip-path:url(#clip-path);}</style><clipPath id="clip-path" transform="translate(-0.11 0.01)"><rect class="cls-1" width="33.57" height="33.55"/></clipPath></defs><g id="Layer_2" data-name="Layer 2"><g id="Layer_1-2" data-name="Layer 1"><g id="b3a0ad0235"><g class="cls-2"><path d="M16.85,0C4.31-.35-4.09,14.36,2.32,25c-3.71,9.43-3.14,10,6.26,6.26,10.63,6.41,25.33-2,25-14.53A16.72,16.72,0,0,0,16.85,0Zm9.73,23.58c-1.95,5.23-10.84,3.28-15.28-1.32-5-4.7-6.86-15.36.3-15.44,1.64.14,2,1.7,2.61,3.15s1.43,2.89.31,4.24c-.6.65-2.31,1.44-1.45,2.78.83,1.54,3.6,5,5.36,3.18a5.55,5.55,0,0,1,.93-1.12c1.35-1.12,2.69-.27,4.24.31,2.24.79,3.73,1.65,3,4.22Z" transform="translate(-0.11 0.01)"/></g></g></g></g></svg>