<svg xmlns="http://www.w3.org/2000/svg" viewBox="0 0 595.93 788.79"><defs><style>.cls-1{fill:#fff;}</style></defs><g id="Layer_2" data-name="Layer 2"><g id="Layer_1-2" data-name="Layer 1"><path d="M37.45,0H595.93a0,0,0,0,1,0,0V788.79a0,0,0,0,1,0,0H37.45A37.45,37.45,0,0,1,0,751.34V37.45A37.45,37.45,0,0,1,37.45,0Z"/><path class="cls-1" d="M147.28,234.32q12.45.54,32.2,1.08t39.23.54q26,0,49.52-.54t33.28-.54q60.6,0,90.65,23.81t30,61.15a86.48,86.48,0,0,1-8.93,37.62Q404.34,376.1,384.31,391t-53,23.54v1.08q45.45,4.88,71.43,19.48T439.51,470a89.13,89.13,0,0,1,10.82,42.48q0,31.93-16.24,55.47t-46.8,36.53q-30.59,13-73.33,13-11.91,0-36-.81t-58.17-.81q-20.58,0-40.32.27t-32.2,1.35V606.64q18.39-1.08,27.6-4.33t12.18-13q3-9.74,3-29.22V291.68q0-20-3.25-29.49a20.29,20.29,0,0,0-12.44-13q-9.21-3.51-27.06-4.06Zm142.87,10.82q-23.82,0-30.85,9.2t-7,37.34V560.1q0,18.95,3.24,28.68t11.64,13q8.39,3.24,24.62,3.25,48.71,0,70.62-24.63t21.92-70.08q0-41.65-21.92-64.39t-72.24-22.73h-52.5V414h46.54q29.76,0,46-12.18a60.78,60.78,0,0,0,22.19-32.47,154,154,0,0,0,6-43.56q0-40-16-60.34T290.15,245.14Z"/><circle class="cls-1" cx="477" cy="697.18" r="50"/><path class="cls-1" d="M185.69,689.07a30.7,30.7,0,0,1,6.79-.73c4.2,0,7,.92,8.82,2.79a7.48,7.48,0,0,1,2.07,5.55,8.16,8.16,0,0,1-5.8,7.51v.14a8.74,8.74,0,0,1,7.11,8.58,8.92,8.92,0,0,1-2.5,6.44c-2.22,2.29-5.85,3.22-10.63,3.22-2.57,0-4.54-.19-5.86-.3Zm2.38,14.36H193c4.87,0,7.93-2.89,7.93-6.62,0-4.74-3.58-6.47-8.58-6.47a18.23,18.23,0,0,0-4.28.37Zm0,16.87a21.68,21.68,0,0,0,4.13.27c5.17,0,10-1.85,10-7.59,0-5.32-4.55-7.6-9.89-7.61h-4.25Z"/><path class="cls-1" d="M210.94,705.51c0-2.4-.07-4.88-.2-7.2h2.2l.1,4.87h.14c1-3,3.53-5.42,6.81-5.42a3.87,3.87,0,0,1,1,.11v2.27a5.87,5.87,0,0,0-1.15-.07c-3.29,0-5.65,2.86-6.3,6.71a12.81,12.81,0,0,0-.2,2.28v13.25h-2.38Z"/><path class="cls-1" d="M238.69,722.31l-.35-3.44h-.11a9.07,9.07,0,0,1-7.65,4c-4.82,0-7.06-3.4-7.06-6.6,0-5.54,4.87-8.88,14.64-8.78v-.64c0-2.37-.47-7.11-6.14-7.07a10.53,10.53,0,0,0-6,1.79l-.75-1.73a12.85,12.85,0,0,1,7-2.07c6.93,0,8.25,5.2,8.25,9.48v9.37a39.85,39.85,0,0,0,.35,5.7Zm-.53-12.83c-5.23-.15-12.13.64-12.13,6.4,0,3.45,2.28,5,4.78,5a7.23,7.23,0,0,0,7.1-4.81,4.74,4.74,0,0,0,.25-1.44Z"/><path class="cls-1" d="M248.31,704c0-2.2-.08-3.85-.2-5.73h2.21l.17,4.33h.1a9.06,9.06,0,0,1,8.27-4.88c2.28,0,8.37,1.17,8.37,10.16v14.39h-2.37V708.13c0-4.37-1.69-8.34-6.65-8.34a7.78,7.78,0,0,0-7.53,7.67v14.85h-2.37Z"/><path class="cls-1" d="M294.23,686.81v29.92c0,1.76.08,3.89.2,5.58h-2.15l-.16-4.55H292a9,9,0,0,1-8.53,5.1c-5.92,0-10.34-5-10.34-12.12,0-8,4.89-13,10.81-13,4.14,0,6.75,2.15,7.83,4.22h.1V686.81Zm-2.37,21a10.13,10.13,0,0,0-.24-2.19,7.73,7.73,0,0,0-7.58-5.89c-5.21,0-8.52,4.55-8.52,10.76,0,5.4,2.7,10.39,8.41,10.39a8,8,0,0,0,7.68-6.29,7.25,7.25,0,0,0,.25-2Z"/><path class="cls-1" d="M305.42,691.44a1.93,1.93,0,1,1-3.85,0,2,2,0,0,1,1.94-2.07A2,2,0,0,1,305.42,691.44Zm-3.11,30.87v-24h2.37v24Z"/><path class="cls-1" d="M312.76,704c0-2.2-.08-3.85-.2-5.73h2.21l.17,4.33h.1a9.06,9.06,0,0,1,8.27-4.88c2.28,0,8.37,1.17,8.37,10.16v14.39h-2.37V708.13c0-4.37-1.69-8.34-6.65-8.34a7.78,7.78,0,0,0-7.53,7.67v14.85h-2.37Z"/><path class="cls-1" d="M358.88,698.31c-.12,1.78-.2,3.68-.2,6.2v14.3c0,6.15-1.26,9.2-3.29,11.11a11.88,11.88,0,0,1-8.12,2.84,13.69,13.69,0,0,1-7.63-2.06l.85-1.92a12.86,12.86,0,0,0,7.14,2c5,0,8.68-2.61,8.68-9.72v-3.39h-.1a9,9,0,0,1-8.35,4.64c-6,0-10.29-5.27-10.29-11.78,0-8.39,5.49-12.77,10.81-12.77,4.71,0,7.09,2.58,8.06,4.6h.1l.14-4.05Zm-2.57,9.22a7.61,7.61,0,0,0-.3-2.31,7.76,7.76,0,0,0-7.47-5.49c-5.07,0-8.57,4.18-8.57,10.53,0,5.4,2.84,10.07,8.51,10.07a7.84,7.84,0,0,0,7.4-5.44,7.68,7.68,0,0,0,.43-2.53Z"/></g></g></svg>