<svg xmlns="http://www.w3.org/2000/svg" viewBox="0 0 171.43 52.99"><g id="Layer_2" data-name="Layer 2"><g id="Layer_1-2" data-name="Layer 1"><path d="M19.66,1V2.45a11.65,11.65,0,0,0-3.6.54A2.7,2.7,0,0,0,14.4,4.72,13,13,0,0,0,14,8.64V44.35a13,13,0,0,0,.43,3.89A2.61,2.61,0,0,0,16.06,50a13.6,13.6,0,0,0,3.6.57V52c-1.16-.09-2.61-.15-4.36-.18s-3.54,0-5.36,0c-2,0-3.9,0-5.66,0S1.1,51.89,0,52V50.54A14,14,0,0,0,3.67,50a2.49,2.49,0,0,0,1.62-1.73,14,14,0,0,0,.4-3.89V8.64a13.87,13.87,0,0,0-.4-3.92A2.57,2.57,0,0,0,3.64,3,12.16,12.16,0,0,0,0,2.45V1c1.1.05,2.53.09,4.28.14s3.64.07,5.66.07c1.82,0,3.61,0,5.36-.07S18.5,1.06,19.66,1ZM43.27,1V2.45A13.79,13.79,0,0,0,38.7,4.07a16.13,16.13,0,0,0-4.57,4.14L20.3,25.49l2.45-4.39L40,46.15a11.14,11.14,0,0,0,2.49,2.74,10.9,10.9,0,0,0,3.42,1.65V52q-1.95-.13-4.68-.18l-4.83,0-3.2,0c-1.27,0-2.87.09-4.79.18V50.54c1.78-.09,2.87-.38,3.28-.86s.22-1.27-.54-2.38L20.74,31.1A21.4,21.4,0,0,0,18.43,28a4.88,4.88,0,0,0-2.09-1.36,11,11,0,0,0-2.66-.4V24.77A10.64,10.64,0,0,0,18.9,23.4,17,17,0,0,0,23,19.87l6-7.56A17.86,17.86,0,0,0,32.26,7c.48-1.46.36-2.58-.36-3.35s-2.07-1.17-4-1.22V1c1,.05,2,.08,3,.11l3,.07,3.06,0c1.29,0,2.48,0,3.56-.07S42.5,1.06,43.27,1Z"/><path d="M68.25,1V2.45a11.76,11.76,0,0,0-3.6.54A2.71,2.71,0,0,0,63,4.72a13,13,0,0,0-.43,3.92V44.35A13,13,0,0,0,63,48.24,2.62,2.62,0,0,0,64.65,50a13.75,13.75,0,0,0,3.6.57V52q-1.73-.13-4.35-.18c-1.75,0-3.54,0-5.36,0-2,0-3.91,0-5.66,0s-3.18.09-4.28.18V50.54A14,14,0,0,0,52.27,50a2.49,2.49,0,0,0,1.62-1.73,14.35,14.35,0,0,0,.4-3.89V8.64a12.89,12.89,0,0,0-.44-3.92A2.68,2.68,0,0,0,52.2,3a11.76,11.76,0,0,0-3.6-.54V1c1.1.05,2.53.09,4.28.14s3.64.07,5.66.07c1.82,0,3.61,0,5.36-.07S67.1,1.06,68.25,1Z"/><path d="M119.88,1V2.45a8.3,8.3,0,0,0-3.67.86,3.51,3.51,0,0,0-1.62,2.34,20,20,0,0,0-.4,4.57V52.27h-2.38L81.29,7.92V42.48a20,20,0,0,0,.43,4.72,3.54,3.54,0,0,0,1.87,2.41,12.2,12.2,0,0,0,4.39.93V52c-.91-.09-2.07-.15-3.49-.18l-4,0q-1.81,0-3.6,0c-1.21,0-2.19.09-3,.18V50.54a9.11,9.11,0,0,0,3.6-.9A3.51,3.51,0,0,0,79.2,47.3a18.6,18.6,0,0,0,.43-4.53V8.64a13,13,0,0,0-.43-3.92A2.7,2.7,0,0,0,77.54,3a11.65,11.65,0,0,0-3.6-.54V1c.77.05,1.75.09,3,.14s2.39.07,3.6.07c1,0,2.08,0,3.09-.07L86.25,1l26.29,37.58V10.51a18.52,18.52,0,0,0-.47-4.75,3.77,3.77,0,0,0-1.91-2.41,10.59,10.59,0,0,0-4.32-.9V1c.86.05,2,.09,3.45.14s2.79.07,4,.07,2.4,0,3.6-.07S119.11,1.06,119.88,1Z"/><path d="M150.05,0a18.15,18.15,0,0,1,7.7,1.4,30.22,30.22,0,0,1,5.4,3.28,2.77,2.77,0,0,0,1.44.72q1.36,0,1.8-4.39h1.66q-.15,2.73-.22,6.59t-.07,10.26H166.1a50.21,50.21,0,0,0-1.33-6.41,11.65,11.65,0,0,0-2.84-5,13,13,0,0,0-5.08-3.6,16.42,16.42,0,0,0-6.37-1.3,12,12,0,0,0-6.63,1.84A14.85,14.85,0,0,0,139,8.57a27.84,27.84,0,0,0-3,8,45,45,0,0,0-1,10.05q0,13,4,19t12.06,6a11,11,0,0,0,4-.65,14.93,14.93,0,0,0,2.7-1.29,4.5,4.5,0,0,0,1.58-1.69,5.64,5.64,0,0,0,.36-2.2v-7a14.33,14.33,0,0,0-.54-4.58,3.25,3.25,0,0,0-2.12-2,16,16,0,0,0-4.61-.61V30.1c.91,0,2,.08,3.24.1l3.92.08,3.71,0c1.73,0,3.3,0,4.72-.07l3.49-.14v1.44a5.09,5.09,0,0,0-2.27.5,2.39,2.39,0,0,0-1,1.73,23.45,23.45,0,0,0-.25,4V52h-1.44a10.93,10.93,0,0,0-.54-2.66c-.31-1-.78-1.44-1.4-1.44a2.63,2.63,0,0,0-1,.22,11,11,0,0,0-1.84,1.08A25.25,25.25,0,0,1,156.38,52a17.35,17.35,0,0,1-6.19,1A26.62,26.62,0,0,1,137,49.93a20,20,0,0,1-8.31-8.85,31,31,0,0,1-2.85-13.79A31.35,31.35,0,0,1,129,12.82a23.23,23.23,0,0,1,8.56-9.47A23.38,23.38,0,0,1,150.05,0Z"/></g></g></svg>