<svg xmlns="http://www.w3.org/2000/svg" viewBox="0 0 60.19 51.98"><g id="Layer_2" data-name="Layer 2"><g id="Layer_1-2" data-name="Layer 1"><path d="M19.66,0V1.44a11.65,11.65,0,0,0-3.6.54A2.7,2.7,0,0,0,14.4,3.71,13,13,0,0,0,14,7.63V43.34a13,13,0,0,0,.43,3.89A2.59,2.59,0,0,0,16.06,49a14,14,0,0,0,3.6.58V51c-1.16-.1-2.61-.16-4.36-.18s-3.54,0-5.36,0c-2,0-3.9,0-5.66,0S1.1,50.88,0,51V49.54A14.36,14.36,0,0,0,3.67,49a2.48,2.48,0,0,0,1.62-1.73,14,14,0,0,0,.4-3.89V7.63a13.91,13.91,0,0,0-.4-3.92A2.57,2.57,0,0,0,3.64,2,12.16,12.16,0,0,0,0,1.44V0C1.1.05,2.53.1,4.28.14S7.92.22,9.94.22c1.82,0,3.61,0,5.36-.08S18.5.05,19.66,0ZM43.27,0V1.44A13.79,13.79,0,0,0,38.7,3.06,16.13,16.13,0,0,0,34.13,7.2L20.3,24.48l2.45-4.39L40,45.14a11,11,0,0,0,2.49,2.74,11.12,11.12,0,0,0,3.42,1.66V51q-1.95-.15-4.68-.18c-1.83,0-3.44,0-4.83,0-.86,0-1.93,0-3.2,0s-2.87.08-4.79.18V49.54c1.78-.1,2.87-.39,3.28-.87s.22-1.27-.54-2.37L20.74,30.1A20.3,20.3,0,0,0,18.43,27a4.82,4.82,0,0,0-2.09-1.37,11,11,0,0,0-2.66-.4V23.76a10.53,10.53,0,0,0,5.22-1.37A17,17,0,0,0,23,18.86l6-7.56A17.74,17.74,0,0,0,32.26,6c.48-1.46.36-2.58-.36-3.35s-2.07-1.17-4-1.22V0c1,.05,2,.08,3,.11l3,.07c1,0,2,0,3.06,0,1.29,0,2.48,0,3.56-.08S42.5.05,43.27,0Z"/><path d="M55.08,42.12a5.08,5.08,0,0,1,3.63,1.4,4.71,4.71,0,0,1,1.48,3.57,4.61,4.61,0,0,1-1.48,3.49,5.42,5.42,0,0,1-7.27,0A4.64,4.64,0,0,1,50,47.09a4.74,4.74,0,0,1,1.47-3.57A5.12,5.12,0,0,1,55.08,42.12Z"/></g></g></svg>