<svg xmlns="http://www.w3.org/2000/svg" viewBox="0 0 595.93 788.79"><defs><style>.cls-1{fill:#121212;}.cls-2{fill:#fff;}</style></defs><g id="Layer_2" data-name="Layer 2"><g id="Layer_1-2" data-name="Layer 1"><path class="cls-1" d="M0,0H559a37,37,0,0,1,37,37V751.82a37,37,0,0,1-37,37H0a0,0,0,0,1,0,0V0A0,0,0,0,1,0,0Z"/><path class="cls-2" d="M501.75,251v10.11q-17.19.51-25.78,3.79A18.2,18.2,0,0,0,464.59,277q-2.77,8.85-2.78,27.55V555.33q0,18.2,2.78,27.3A17.51,17.51,0,0,0,476,594.76q8.58,3,25.78,4v10.11q-12.64-1-31.34-1.27t-37.92-.25q-21.24,0-39.94.25t-29.83,1.27V598.81q17.17-1,26-4a18.23,18.23,0,0,0,11.88-12.13q3-9.11,3-27.3V278.79l2.53,1L281.83,610.94h-8.09L143.31,283.34V542.18q0,21.24,3,33.12t13.15,16.93q10.11,5.07,30.83,6.58v10.11q-9.6-1-24.51-1.27t-28.06-.25q-12.65,0-25.28.25t-20.73,1.27V598.81q16.68-1.53,25.28-6.32t11.63-16.44q3-11.61,3-31.84V304.57q0-18.7-3-27.55A19,19,0,0,0,117,264.88q-8.61-3.27-25.28-3.79V251q8.08.51,20.73,1t25.28.51q14.66,0,29.57-.51t25.53-1L304.58,538.14l-9.6,6.57L404.68,252.5h27.81q19.2,0,37.92-.51T501.75,251Z"/><path class="cls-2" d="M175,707.45c-.32-5.05-.72-11.25-.69-14.94h-.13c-1.22,3.66-2.6,7.58-4.54,12.59l-7.08,18.33H160.9l-6.64-17.92c-1.92-5.25-3.35-9.29-4.36-13h-.13c-.08,4-.32,9.83-.72,15.41L148,723.43h-2.34l2.46-33.71h2.73l7.25,19.43c1.59,4.29,2.77,7.67,3.72,10.93h.12c.86-3.12,2.06-6.38,3.78-10.89l7.52-19.47h2.85l2.26,33.71H176Z"/><path class="cls-2" d="M186.21,711.2c0,7.66,4.18,10.7,9.13,10.7a13.93,13.93,0,0,0,6.67-1.36l.62,1.87a16.19,16.19,0,0,1-7.58,1.54c-6.9,0-11.19-5-11.19-12.05,0-8,4.59-13,10.79-13,7.86,0,9.35,7.39,9.35,10.85a8.83,8.83,0,0,1-.07,1.48Zm15.3-1.9c.06-3.35-1.33-8.45-7.17-8.45-5.28,0-7.57,4.75-8,8.45Z"/><path class="cls-2" d="M229.22,687.92v29.93c0,1.76.08,3.89.2,5.58h-2.15l-.16-4.56H227a9,9,0,0,1-8.54,5.11c-5.91,0-10.34-5-10.34-12.12,0-8,4.89-13,10.81-13,4.14,0,6.75,2.15,7.83,4.23h.1V687.92Zm-2.37,21a10.11,10.11,0,0,0-.24-2.18,7.73,7.73,0,0,0-7.57-5.89c-5.22,0-8.53,4.55-8.53,10.76,0,5.4,2.7,10.39,8.41,10.39a8,8,0,0,0,7.68-6.29,7.28,7.28,0,0,0,.25-2Z"/><path class="cls-2" d="M240.41,692.56a1.93,1.93,0,1,1-3.85,0,2,2,0,0,1,1.94-2.07A1.94,1.94,0,0,1,240.41,692.56Zm-3.11,30.87v-24h2.37v24Z"/><path class="cls-2" d="M260.84,723.43l-.35-3.44h-.12a9.05,9.05,0,0,1-7.65,4c-4.82,0-7.06-3.4-7.06-6.61,0-5.53,4.88-8.87,14.64-8.77V708c0-2.37-.46-7.11-6.14-7.07a10.54,10.54,0,0,0-6,1.78l-.75-1.72a12.81,12.81,0,0,1,7-2.08c6.93,0,8.25,5.2,8.25,9.49v9.36a40,40,0,0,0,.35,5.71Zm-.54-12.83c-5.23-.15-12.13.64-12.13,6.4,0,3.45,2.28,5,4.78,5a7.24,7.24,0,0,0,7.1-4.81,4.79,4.79,0,0,0,.25-1.44Z"/><path class="cls-2" d="M265.83,725.43l15.93-36.26h2.43l-16,36.26Z"/><path class="cls-2" d="M316.45,707.45c-.33-5.05-.73-11.25-.69-14.94h-.14c-1.21,3.66-2.6,7.58-4.53,12.59L304,723.43h-1.66l-6.64-17.92c-1.92-5.25-3.35-9.29-4.36-13h-.13c-.09,4-.32,9.83-.72,15.41l-1.07,15.51H287.1l2.46-33.71h2.73l7.25,19.43c1.58,4.29,2.77,7.67,3.72,10.93h.11c.87-3.12,2.07-6.38,3.79-10.89l7.51-19.47h2.85l2.27,33.71h-2.35Z"/><path class="cls-2" d="M340.39,723.43,340,720h-.12a9.05,9.05,0,0,1-7.65,4c-4.82,0-7.06-3.4-7.06-6.61,0-5.53,4.87-8.87,14.64-8.77V708c0-2.37-.46-7.11-6.14-7.07a10.6,10.6,0,0,0-6,1.78l-.75-1.72a12.86,12.86,0,0,1,7-2.08c6.93,0,8.25,5.2,8.25,9.49v9.36a40,40,0,0,0,.35,5.71Zm-.54-12.83c-5.23-.15-12.13.64-12.13,6.4,0,3.45,2.28,5,4.78,5a7.24,7.24,0,0,0,7.1-4.81,4.79,4.79,0,0,0,.25-1.44Z"/><path class="cls-2" d="M350,706.62c0-2.4-.07-4.87-.2-7.2H352l.1,4.88h.14c1-3,3.53-5.43,6.81-5.43a3.87,3.87,0,0,1,1,.12v2.27a5.87,5.87,0,0,0-1.15-.07c-3.29,0-5.65,2.86-6.3,6.71a12.78,12.78,0,0,0-.2,2.27v13.26H350Z"/><path class="cls-2" d="M367.51,711h.1c.6-.73,1.57-1.85,2.32-2.63l8.47-8.92h2.91l-9.69,10,11,14.06h-2.9L370,710.84l-2.45,2.57v10h-2.38V687.92h2.38Z"/><path class="cls-2" d="M387.21,711.2c0,7.66,4.17,10.7,9.12,10.7a14,14,0,0,0,6.68-1.36l.61,1.87a16.13,16.13,0,0,1-7.57,1.54c-6.9,0-11.19-5-11.19-12.05,0-8,4.59-13,10.79-13,7.86,0,9.35,7.39,9.35,10.85a7.74,7.74,0,0,1-.08,1.48Zm15.3-1.9c.06-3.35-1.34-8.45-7.18-8.45-5.27,0-7.56,4.75-8,8.45Z"/><path class="cls-2" d="M414.39,692.47v6.95h6.84v1.93h-6.84V717c0,3,.95,5,3.53,5a8.52,8.52,0,0,0,2.73-.37l.28,1.84a8.65,8.65,0,0,1-3.31.57,5.11,5.11,0,0,1-4.14-1.7C412.39,721,412,719,412,716.52V701.35h-4v-1.93h4v-6.17Z"/><path class="cls-2" d="M429.66,692.56a1.93,1.93,0,1,1-3.85,0,2,2,0,0,1,1.93-2.07A2,2,0,0,1,429.66,692.56Zm-3.12,30.87v-24h2.38v24Z"/><path class="cls-2" d="M437,705.16c0-2.2-.07-3.85-.2-5.74H439l.17,4.34h.1a9,9,0,0,1,8.26-4.89c2.29,0,8.38,1.18,8.38,10.17v14.39h-2.37V709.25c0-4.38-1.69-8.34-6.66-8.34a7.7,7.7,0,0,0-7.2,5.53,8,8,0,0,0-.32,2.13v14.86H437Z"/><path class="cls-2" d="M483.12,699.42c-.13,1.79-.2,3.69-.2,6.2v14.3c0,6.16-1.26,9.21-3.29,11.12a11.9,11.9,0,0,1-8.12,2.84,13.61,13.61,0,0,1-7.63-2.07l.85-1.91a12.84,12.84,0,0,0,7.14,2c5,0,8.67-2.61,8.67-9.72v-3.39h-.09a9.05,9.05,0,0,1-8.36,4.64c-6,0-10.28-5.27-10.28-11.78,0-8.39,5.48-12.78,10.81-12.78,4.71,0,7.09,2.59,8.06,4.6h.1l.14-4.05Zm-2.58,9.23a7.31,7.31,0,0,0-.3-2.31,7.74,7.74,0,0,0-7.46-5.49c-5.07,0-8.57,4.17-8.57,10.52,0,5.4,2.83,10.08,8.51,10.08a7.84,7.84,0,0,0,7.4-5.44,8.05,8.05,0,0,0,.42-2.54Z"/></g></g></svg>