<svg xmlns="http://www.w3.org/2000/svg" viewBox="0 0 595.93 788.79"><defs><style>.cls-1{fill:#45321d;}.cls-2{fill:#fff;}</style></defs><g id="Layer_2" data-name="Layer 2"><g id="Layer_1-2" data-name="Layer 1"><rect class="cls-1" width="595.93" height="788.79"/><path class="cls-2" d="M503,319.3q-18.9-38.61-53.18-59.2T370,239.46q-35.88,0-65,14.61-30.27-14.65-68.52-14.61-44.58,0-78.84,22.55t-53.95,62.77Q84,365,84,418.72q0,54.64,18.94,93.49t53.18,59.43q34.3,20.61,79.8,20.59,35.73,0,65.09-14.47,30.27,14.44,68.47,14.47,44.58,0,79.11-22.5t53.91-62.82q19.38-40.26,19.4-93.94Q521.89,357.86,503,319.3Zm-176.66,6.94q14.1,37.38,14.1,88.65,0,49.37-12.69,87.51-9.17,27.58-23.83,46.51-14.5-17.73-24.28-43.64-14.1-37.65-14.1-88.46,0-49.86,12.69-87.69,9.17-27.53,23.87-46.38Q316.5,300.4,326.29,326.24ZM237.82,583.6q-29.23,0-53.41-20.36t-38.34-58q-14.17-37.65-14.15-88.46,0-49.86,12.69-87.69t35.7-59.44q23-21.57,54.18-21.59,27.87,0,50.72,18-30.06,22-48,58.7Q217.53,365,217.55,418.72q0,54.64,18.9,93.49,17.53,35.81,48,56.15Q264.07,583.63,237.82,583.6Zm223.45-81.2q-12.74,38.07-35.7,59.66T371.39,583.6q-27.47,0-50.49-18,30.33-21.92,48-58.71,19.45-40.26,19.4-93.94,0-55.11-18.89-93.67-17.54-35.67-48.07-55.92,20.4-15.27,46.7-15.29c19.81,0,37.66,6.8,53.68,20.41s28.66,32.82,38.07,57.74S474,380.7,474,414.89Q474,464.26,461.27,502.4Z"/><path class="cls-2" d="M251.74,697.77h3v24.09h18.84v1.53H251.74Z"/><path class="cls-2" d="M304.4,714.09c0,6.81-7.69,9.71-14.4,9.71-7.79,0-13.79-3.66-13.79-9.39,0-6.25,6.76-9.69,14.23-9.69C298.75,704.72,304.4,708.5,304.4,714.09Zm-25.18.23c0,4.56,4.8,8,11,8s11.19-3.45,11.19-8.12c0-3.34-3.11-8-11-8C282.7,706.22,279.22,710.39,279.22,714.32Z"/><path class="cls-2" d="M336.28,705.14a39,39,0,0,0-.25,4.71v10.87c0,4.68-1.59,7-4.12,8.45-2.75,1.59-6.79,2.16-10.19,2.16a25.92,25.92,0,0,1-9.56-1.57l1.07-1.45a24.37,24.37,0,0,0,8.94,1.52c6.32,0,10.88-2,10.88-7.4v-2.57h-.13c-1.56,1.85-5.09,3.53-10.46,3.53-7.56,0-12.9-4-12.9-9,0-6.37,6.88-9.71,13.55-9.71,5.91,0,8.89,2,10.11,3.5h.13l.17-3.08Zm-3.23,7a3.52,3.52,0,0,0-.38-1.75c-1.23-2.21-4.41-4.18-9.35-4.18-6.36,0-10.75,3.18-10.75,8,0,4.11,3.56,7.66,10.67,7.66,4,0,7.76-1.51,9.28-4.13a4,4,0,0,0,.53-1.93Z"/><path class="cls-2" d="M371.85,714.09c0,6.81-7.69,9.71-14.4,9.71-7.79,0-13.79-3.66-13.79-9.39,0-6.25,6.75-9.69,14.23-9.69C366.19,704.72,371.85,708.5,371.85,714.09Zm-25.18.23c0,4.56,4.79,8,11,8s11.19-3.45,11.19-8.12c0-3.34-3.1-8-11-8C350.15,706.22,346.67,710.39,346.67,714.32Z"/></g></g></svg>